Patient4_TMGait_0pt4_02_right_07_EMG.mot
version=1
nRows=13
nColumns=33
inDegrees=no
endheader
time	1LAddLong	2LGlutMax	3LGlutMed	4LIliopsoas	5LSemiMemb	6LBicFemLong	7LRecFem	8LVastMed	9LVastLat	10LGasMed	11LTibAnt	12lTibPost	13LPeroneusLong	14LSol	15LExtDigLong	16LFlexDigLong	17RAddLong	18RGlutMax	19RGlutMed	20RIliopsoas	21RSemiMemb	22RBicFemLong	23RRecFem	24RVastMed	25RVastLat	26RGasMed	27RTibAnt	28RTibPost	29RPeroneusLong	30RSol	31RExtDigLong	32RFlexDigLong
10.173	0.005341	-0.085754	0.00824	0.021362	0.02182	-0.005798	0.088806	0.001526	0.11353	0.24506	0.001831	0.02243	-0.074768	-0.058594	-0.065918	0.051727	0.006409	-0.041809	-0.50537	0.027924	-0.067902	0.056458	-0.095978	-0.084076	0.00351	-0.003357	-0.045624	-0.008392	-0.18753	0.058899	0.000458	-0.002289
10.174	0.000458	-0.082397	0.005035	0.000458	0.013428	-0.01236	0.06424	0.008698	0.05249	0.28702	-0.047913	0.020294	-0.045624	0.059357	0.15656	0.028534	0.000916	-0.027161	0.026398	-0.023499	-0.19043	0.177	-0.13886	-0.12894	-0.005798	-0.003052	-0.0177	-0.010681	-0.24765	-0.025482	-0.001221	-0.003052
10.175	0.005035	-0.053864	0.017242	0.005951	0.013123	-0.001678	-0.053558	0.005035	0.040283	0.39429	-0.011139	0.010986	-0.015869	0.21286	0.015869	0.010834	-0.026855	0.066986	0.14358	-0.041351	-0.49942	0.28625	-0.14206	-0.086823	0.001068	-0.009155	0.013428	-0.010071	0.01358	-0.018311	0.000305	0.002594
10.176	0.00824	-0.053864	-0.021973	-0.014038	0.013275	-0.009155	-0.042572	0.009613	-0.030365	0.035553	0.023041	0.01236	-0.054779	0.2269	0.046997	-0.023804	-0.010986	-0.040741	0.24811	-0.042725	-0.31952	0.24307	-0.13534	-0.029449	0.002747	-0.001526	0.02655	-0.015717	0.12405	-0.016327	-0.002899	-0.002747
10.177	0.009155	-0.058746	0.002441	-0.006714	0.013733	-0.011902	-0.041199	0.012512	0.005035	-0.13565	0.18219	0.015717	-0.049591	0.14999	0.000305	-0.035706	-0.020447	0.024109	0.82748	0.02594	0.23697	0.16129	-0.15427	-0.044861	0.006714	-0.000458	0.045624	-0.01358	0.069122	-0.030518	0.003357	-0.006104
10.178	0.005951	-0.067596	-0.037079	0.020447	0.013275	0.002899	0.015564	0.005188	-0.020142	-0.014648	0.22614	0.008087	-0.00824	0.043335	0.010223	0.010071	-0.027161	0.03418	0.6488	0.037231	0.26291	0.12528	-0.16037	-0.049286	0.020905	-0.010071	0.023346	-0.01297	0.074921	0.023499	-0.003204	-0.004883
10.179	0.013733	-0.037689	-0.033722	0.016174	0.023804	0.015717	-0.016022	0.001068	0.002289	-0.024109	0.083466	0.010071	-0.01358	-0.14587	0.50964	0.57968	-0.01297	0.027313	0.01709	-0.003204	0.063477	0.067749	-0.13214	-0.057526	0.018616	-0.007629	0.021057	-0.010986	0.031433	0.048065	-0.001678	-0.00824
10.18	0.009918	-0.06424	-0.042572	0.016479	0.011292	-0.003357	0.014648	0.000458	0.078125	-0.26413	-0.19547	0.00946	0.016327	-0.20325	0.26352	-1.1034	-0.015259	-0.02533	-0.39825	-0.011292	0.019531	0.038147	-0.11139	-0.10422	0.016479	-0.004272	-0.010376	-0.010529	0.024567	0.007324	-0.002441	0.001373
10.181	0.007629	-0.061951	0.031128	0.006104	0.016327	0.00824	0.043335	0.004272	0.072632	-0.2887	-0.057678	0.007172	0.032806	-0.15717	0.28168	0.16434	-0.007324	0.00412	-0.46906	-0.046082	-0.023041	0.022736	-0.10193	-0.068817	0.021057	-0.00824	0.02182	-0.01236	0.041962	-0.020599	-0.001678	-0.004272
10.182	0.019989	-0.050354	0.10788	0.04715	0.019531	0.009766	0.024261	0.007935	0.07431	-0.21103	-0.011749	0.002441	0.10132	-0.061646	-0.25269	0.1416	-0.00412	0.049286	-0.21652	-0.031738	0.049133	-0.029297	-0.13763	-0.03952	0.019226	-0.005341	-0.001831	-0.01236	0.1152	-0.023041	0.002899	-0.003357
10.183	0.008392	-0.046082	0.010681	0.026855	0.016327	0.007477	-0.021667	-0.003357	-0.001526	-0.17258	-0.000305	-0.00351	0.032196	0.079956	-0.36804	0.16113	0.011444	0.037384	-0.18066	0.067291	0.064545	-0.08194	-0.15991	-0.061493	0.014648	0.004425	0.004425	-0.011749	0.11078	-0.014954	-0.000916	-0.001984
10.184	0.015869	-0.07019	-0.018158	-0.010376	0.020447	-0.006256	0.016479	-0.014496	-0.034943	-0.12116	0.012207	0.007477	-0.049744	-0.015869	0.12665	0.098267	0.016785	0.037231	-0.52826	0.071259	0.041504	-0.087585	-0.13428	-0.036926	-0.002594	-0.003815	0.020142	-0.009613	-0.027771	-0.006409	0.003357	-0.002441
10.185	-0.006714	-0.054779	-0.023804	0.00061	0.016022	-0.007935	0.019379	-0.001373	0.004578	-0.13763	0.092163	0.004578	-0.075684	-0.16251	-0.65735	0.068207	0.022736	-0.016479	-0.6134	0.061188	0.081635	-0.06546	-0.15503	-0.061798	0.016022	-0.009155	0.03006	-0.010071	-0.025024	0.022736	0.001984	-0.00412
